<svg xmlns="http://www.w3.org/2000/svg" width="71" height="72" viewBox="0 0 71 72">
  <path id="Sustracción_8" data-name="Sustracción 8" d="M42.5-14a34.855,34.855,0,0,1-13.818-2.829A35.358,35.358,0,0,1,17.4-24.544,35.912,35.912,0,0,1,9.79-35.987,36.211,36.211,0,0,1,7-50,36.21,36.21,0,0,1,9.79-64.013,35.913,35.913,0,0,1,17.4-75.456a35.359,35.359,0,0,1,11.284-7.715A34.853,34.853,0,0,1,42.5-86a34.855,34.855,0,0,1,13.818,2.829A35.359,35.359,0,0,1,67.6-75.456a35.912,35.912,0,0,1,7.608,11.443A36.209,36.209,0,0,1,78-50a36.211,36.211,0,0,1-2.79,14.013A35.911,35.911,0,0,1,67.6-24.544a35.358,35.358,0,0,1-11.284,7.715A34.857,34.857,0,0,1,42.5-14ZM29.345-40.509h0v3.164h25.31v-3.164Zm9.491-15.818-9.491,9.586,3.164,3.164L38.836-50,42-46.836,54.655-59.491l-3.069-3.163L42-53.164Z" transform="translate(-7 86)" fill="#0f0f1a"/>
</svg>
