<svg xmlns="http://www.w3.org/2000/svg" width="71" height="72" viewBox="0 0 71 72">
  <path id="Sustracción_7" data-name="Sustracción 7" d="M41.5-15a34.855,34.855,0,0,1-13.818-2.829A35.358,35.358,0,0,1,16.4-25.544,35.912,35.912,0,0,1,8.79-36.987,36.211,36.211,0,0,1,6-51,36.21,36.21,0,0,1,8.79-65.013,35.913,35.913,0,0,1,16.4-76.456a35.359,35.359,0,0,1,11.284-7.715A34.853,34.853,0,0,1,41.5-87a34.855,34.855,0,0,1,13.818,2.829A35.359,35.359,0,0,1,66.6-76.456a35.912,35.912,0,0,1,7.608,11.443A36.209,36.209,0,0,1,77-51a36.211,36.211,0,0,1-2.79,14.013A35.912,35.912,0,0,1,66.6-25.544a35.359,35.359,0,0,1-11.284,7.715A34.857,34.857,0,0,1,41.5-15ZM26.013-43.132v2.623H57.987v-2.623H52.664a2.64,2.64,0,0,0,2.646-2.623l.014-13.114a2.647,2.647,0,0,0-2.665-2.623H31.342a2.647,2.647,0,0,0-2.664,2.623v13.114a2.647,2.647,0,0,0,2.664,2.623Zm26.645-2.623H31.342V-58.869H52.658v13.113Z" transform="translate(-6 87)" fill="#0f0f1a"/>
</svg>
