<svg xmlns="http://www.w3.org/2000/svg" width="130.999" height="132" viewBox="0 0 130.999 132">
  <path id="Sustracción_19" data-name="Sustracción 19" d="M70.5,45A64.664,64.664,0,0,1,45,39.813a65.255,65.255,0,0,1-20.82-14.144A65.809,65.809,0,0,1,10.148,4.69,66.02,66.02,0,0,1,5-21a66.021,66.021,0,0,1,5.147-25.69A65.811,65.811,0,0,1,24.185-67.669,65.255,65.255,0,0,1,45-81.814,64.663,64.663,0,0,1,70.5-87,64.664,64.664,0,0,1,96-81.814a65.257,65.257,0,0,1,20.82,14.145A65.811,65.811,0,0,1,130.853-46.69,66.02,66.02,0,0,1,136-21a66.019,66.019,0,0,1-5.147,25.69,65.809,65.809,0,0,1-14.037,20.979A65.256,65.256,0,0,1,96,39.813,64.665,64.665,0,0,1,70.5,45ZM67.793-47.631h0A26.958,26.958,0,0,0,43.427-20.693,27.09,27.09,0,0,0,70.473,6.38,27.173,27.173,0,0,0,92.294-4.693L85.255-8.834A18.807,18.807,0,0,1,70.5-1.742,18.83,18.83,0,0,1,57.1-7.288a18.83,18.83,0,0,1-5.547-13.4,18.879,18.879,0,0,1,4.681-12.454,19.011,19.011,0,0,1,11.564-6.281v-8.2Zm5.414,0v8.2a19.011,19.011,0,0,1,11.564,6.281,18.88,18.88,0,0,1,4.68,12.454,19.326,19.326,0,0,1-1.3,6.877L95.19-9.674a26.6,26.6,0,0,0,2.383-11.019A26.962,26.962,0,0,0,73.207-47.631Z" transform="translate(-5 87)" fill="#fff"/>
</svg>
