<svg xmlns="http://www.w3.org/2000/svg" width="131" height="132" viewBox="0 0 131 132">
    <path id="Sustracción_20" data-name="Sustracción 20" d="M70.5,45A64.664,64.664,0,0,1,45,39.813a65.255,65.255,0,0,1-20.82-14.144A65.809,65.809,0,0,1,10.148,4.69,66.02,66.02,0,0,1,5-21a66.021,66.021,0,0,1,5.147-25.69A65.811,65.811,0,0,1,24.185-67.669,65.255,65.255,0,0,1,45-81.814,64.663,64.663,0,0,1,70.5-87,64.664,64.664,0,0,1,96-81.814a65.257,65.257,0,0,1,20.82,14.145A65.811,65.811,0,0,1,130.853-46.69,66.02,66.02,0,0,1,136-21a66.019,66.019,0,0,1-5.147,25.69,65.809,65.809,0,0,1-14.037,20.979A65.256,65.256,0,0,1,96,39.813,64.665,64.665,0,0,1,70.5,45ZM87.393-39a1.141,1.141,0,0,0-1.139,1.139V4.866a1.141,1.141,0,0,0,1.139,1.139h6.723a1.141,1.141,0,0,0,1.139-1.139v-42.73A1.141,1.141,0,0,0,94.116-39ZM73.89-25.5a1.141,1.141,0,0,0-1.139,1.139V4.866A1.141,1.141,0,0,0,73.89,6.006h6.723a1.141,1.141,0,0,0,1.139-1.139V-24.361A1.141,1.141,0,0,0,80.613-25.5Zm-13.517-22.5a1.126,1.126,0,0,0-1.125,1.125V4.881a1.126,1.126,0,0,0,1.125,1.125h6.752A1.126,1.126,0,0,0,68.25,4.881V-46.88a1.126,1.126,0,0,0-1.125-1.125ZM46.87-16.5a1.126,1.126,0,0,0-1.125,1.125V4.881A1.126,1.126,0,0,0,46.87,6.006h6.752a1.126,1.126,0,0,0,1.125-1.125V-15.374A1.126,1.126,0,0,0,53.622-16.5Z" transform="translate(-5 87)" fill="#fff"/>
  </svg>
  