<svg xmlns="http://www.w3.org/2000/svg" width="130.999" height="132" viewBox="0 0 130.999 132">
  <path id="Sustracción_18" data-name="Sustracción 18" d="M70.5,45A64.664,64.664,0,0,1,45,39.813a65.255,65.255,0,0,1-20.82-14.144A65.809,65.809,0,0,1,10.148,4.69,66.02,66.02,0,0,1,5-21a66.021,66.021,0,0,1,5.147-25.69A65.811,65.811,0,0,1,24.185-67.669,65.255,65.255,0,0,1,45-81.814,64.663,64.663,0,0,1,70.5-87,64.664,64.664,0,0,1,96-81.814a65.257,65.257,0,0,1,20.82,14.145A65.811,65.811,0,0,1,130.853-46.69,66.02,66.02,0,0,1,136-21a66.019,66.019,0,0,1-5.147,25.69,65.809,65.809,0,0,1-14.037,20.979A65.256,65.256,0,0,1,96,39.813,64.665,64.665,0,0,1,70.5,45ZM49.826-17.311A11.945,11.945,0,0,0,37.894-5.379V-2.4a4.977,4.977,0,0,0,4.972,4.972h29.83A4.977,4.977,0,0,0,77.666-2.4V-5.379A11.945,11.945,0,0,0,65.734-17.311h-.859a16.273,16.273,0,0,1-7.095,1.657,16.341,16.341,0,0,1-7.095-1.657Zm32.812,0a11.461,11.461,0,0,0-5.77,1.595A15.184,15.184,0,0,1,80.98-5.379V-1.4a2.908,2.908,0,0,1-.033.378c-.012.094-.025.19-.03.285H99.21a4.977,4.977,0,0,0,4.972-4.972,11.614,11.614,0,0,0-11.6-11.6h-.393a13.909,13.909,0,0,1-4.578.829,13.9,13.9,0,0,1-4.577-.829Zm4.971-23.2a9.954,9.954,0,0,0-9.942,9.943,9.954,9.954,0,0,0,9.942,9.942,9.954,9.954,0,0,0,9.943-9.942A9.954,9.954,0,0,0,87.609-40.511ZM57.78-43.826a11.613,11.613,0,0,0-11.6,11.6,11.613,11.613,0,0,0,11.6,11.6,11.613,11.613,0,0,0,11.6-11.6A11.613,11.613,0,0,0,57.78-43.826Z" transform="translate(-5 87)" fill="#fff"/>
</svg>
