<svg xmlns="http://www.w3.org/2000/svg" xmlns:xlink="http://www.w3.org/1999/xlink" width="945" height="621" viewBox="0 0 945 621">
  <defs>
    <filter id="Rectángulo_5" x="0" y="0" width="945" height="621" filterUnits="userSpaceOnUse">
      <feOffset dy="3" input="SourceAlpha"/>
      <feGaussianBlur stdDeviation="9.5" result="blur"/>
      <feFlood flood-opacity="0.161"/>
      <feComposite operator="in" in2="blur"/>
      <feComposite in="SourceGraphic"/>
    </filter>
    <filter id="Rectángulo_8" x="239.5" y="334.5" width="647" height="234" filterUnits="userSpaceOnUse">
      <feOffset input="SourceAlpha"/>
      <feGaussianBlur stdDeviation="6" result="blur-2"/>
      <feFlood flood-opacity="0.161"/>
      <feComposite operator="in" in2="blur-2"/>
      <feComposite in="SourceGraphic"/>
    </filter>
    <filter id="Rectángulo_9" x="238.5" y="155.5" width="647" height="189" filterUnits="userSpaceOnUse">
      <feOffset input="SourceAlpha"/>
      <feGaussianBlur stdDeviation="6" result="blur-3"/>
      <feFlood flood-opacity="0.161"/>
      <feComposite operator="in" in2="blur-3"/>
      <feComposite in="SourceGraphic"/>
    </filter>
    <filter id="Rectángulo_6" x="0" y="0" width="945" height="127" filterUnits="userSpaceOnUse">
      <feOffset dy="3" input="SourceAlpha"/>
      <feGaussianBlur stdDeviation="9.5" result="blur-4"/>
      <feFlood flood-opacity="0.161"/>
      <feComposite operator="in" in2="blur-4"/>
      <feComposite in="SourceGraphic"/>
    </filter>
  </defs>
  <g id="Grupo_6" data-name="Grupo 6" transform="translate(-64.5 -1403.5)">
    <g transform="matrix(1, 0, 0, 1, 64.5, 1403.5)" filter="url(#Rectángulo_5)">
      <g id="Rectángulo_5-2" data-name="Rectángulo 5" transform="translate(28.5 25.5)" fill="#fff" stroke="#707070" stroke-width="1">
        <rect width="888" height="564" rx="31" stroke="none"/>
        <rect x="0.5" y="0.5" width="887" height="563" rx="30.5" fill="none"/>
      </g>
    </g>
    <g transform="matrix(1, 0, 0, 1, 64.5, 1403.5)" filter="url(#Rectángulo_8)">
      <rect id="Rectángulo_8-2" data-name="Rectángulo 8" width="611" height="198" rx="25" transform="translate(257.5 352.5)" fill="#fff"/>
    </g>
    <g transform="matrix(1, 0, 0, 1, 64.5, 1403.5)" filter="url(#Rectángulo_9)">
      <rect id="Rectángulo_9-2" data-name="Rectángulo 9" width="611" height="153" rx="22" transform="translate(256.5 173.5)" fill="#fff"/>
    </g>
    <g id="Grupo_5" data-name="Grupo 5">
      <g transform="matrix(1, 0, 0, 1, 64.5, 1403.5)" filter="url(#Rectángulo_6)">
        <path id="Rectángulo_6-2" data-name="Rectángulo 6" d="M31,0H857a31,31,0,0,1,31,31V70a0,0,0,0,1,0,0H0a0,0,0,0,1,0,0V31A31,31,0,0,1,31,0Z" transform="translate(28.5 25.5)" fill="#0f0f1a"/>
      </g>
      <circle id="Elipse_6" data-name="Elipse 6" cx="11.5" cy="11.5" r="11.5" transform="translate(207 1453)" fill="#fff"/>
      <circle id="Elipse_7" data-name="Elipse 7" cx="11.5" cy="11.5" r="11.5" transform="translate(163 1453)" fill="#fff"/>
      <circle id="Elipse_8" data-name="Elipse 8" cx="11.5" cy="11.5" r="11.5" transform="translate(119 1453)" fill="#fff"/>
      <text id="Overview" transform="translate(321 1546)" fill="#0f0f1a" font-size="28" font-family="Poppins-SemiBold, Poppins" font-weight="600"><tspan x="0" y="0">Overview</tspan></text>
      <circle id="Elipse_9" data-name="Elipse 9" cx="19.5" cy="19.5" r="19.5" transform="translate(119 1517)" fill="#f0f0f0"/>
      <text id="Jacob" transform="translate(167 1532)" fill="#0f0f1a" font-size="13" font-family="Poppins-Regular, Poppins"><tspan x="0" y="0">Jacob</tspan></text>
      <text id="Premium_Account" data-name="Premium Account" transform="translate(167 1546)" fill="#0f0f1a" font-size="9" font-family="Poppins-Regular, Poppins" opacity="0.7"><tspan x="0" y="0">Premium Account</tspan></text>
      <rect id="Rectángulo_10" data-name="Rectángulo 10" width="20" height="19" rx="9" transform="translate(119 1620)" fill="#707070" opacity="0.1"/>
      <rect id="Rectángulo_12" data-name="Rectángulo 12" width="20" height="19" rx="9" transform="translate(119 1654)" fill="#707070" opacity="0.1"/>
      <rect id="Rectángulo_13" data-name="Rectángulo 13" width="20" height="19" rx="9" transform="translate(119 1688)" fill="#707070" opacity="0.1"/>
      <rect id="Rectángulo_14" data-name="Rectángulo 14" width="20" height="19" rx="9" transform="translate(119 1722)" fill="#707070" opacity="0.1"/>
      <rect id="Rectángulo_15" data-name="Rectángulo 15" width="20" height="19" rx="9" transform="translate(119 1756)" fill="#707070" opacity="0.1"/>
      <rect id="Rectángulo_11" data-name="Rectángulo 11" width="96" height="19" rx="9" transform="translate(148 1620)" fill="#707070" opacity="0.1"/>
      <rect id="Rectángulo_16" data-name="Rectángulo 16" width="83" height="19" rx="9" transform="translate(148 1654)" fill="#707070" opacity="0.1"/>
      <rect id="Rectángulo_17" data-name="Rectángulo 17" width="107" height="19" rx="9" transform="translate(148 1688)" fill="#707070" opacity="0.1"/>
      <rect id="Rectángulo_18" data-name="Rectángulo 18" width="63" height="19" rx="9" transform="translate(148 1722)" fill="#707070" opacity="0.1"/>
      <rect id="Rectángulo_19" data-name="Rectángulo 19" width="96" height="19" rx="9" transform="translate(148 1756)" fill="#707070" opacity="0.1"/>
      <rect id="Rectángulo_31" data-name="Rectángulo 31" width="83" height="21" rx="9" transform="translate(119 1926)" fill="#707070" opacity="0.1"/>
      <text id="Statistics_last_7_days" data-name="Statistics last 7 days" transform="translate(346 1787)" fill="#0f0f1a" font-size="14" font-family="Poppins-Medium, Poppins" font-weight="500"><tspan x="0" y="0">Statistics last 7 days</tspan></text>
      <text id="Sales" transform="translate(346 1806)" fill="#0f0f1a" font-size="13" font-family="Poppins-Medium, Poppins" font-weight="500" opacity="0.7"><tspan x="0" y="0">Sales</tspan></text>
      <circle id="Elipse_10" data-name="Elipse 10" cx="3.5" cy="3.5" r="3.5" transform="translate(360 1919)" fill="#0f0f1a" opacity="0.7"/>
      <circle id="Elipse_11" data-name="Elipse 11" cx="3.5" cy="3.5" r="3.5" transform="translate(397 1919)" fill="#0f0f1a" opacity="0.7"/>
      <circle id="Elipse_12" data-name="Elipse 12" cx="3.5" cy="3.5" r="3.5" transform="translate(434 1919)" fill="#0f0f1a" opacity="0.7"/>
      <circle id="Elipse_13" data-name="Elipse 13" cx="3.5" cy="3.5" r="3.5" transform="translate(471 1919)" fill="#0f0f1a" opacity="0.7"/>
      <circle id="Elipse_14" data-name="Elipse 14" cx="3.5" cy="3.5" r="3.5" transform="translate(508 1919)" fill="#0f0f1a" opacity="0.7"/>
      <circle id="Elipse_15" data-name="Elipse 15" cx="3.5" cy="3.5" r="3.5" transform="translate(545 1919)" fill="#0f0f1a" opacity="0.7"/>
      <circle id="Elipse_16" data-name="Elipse 16" cx="3.5" cy="3.5" r="3.5" transform="translate(582 1919)" fill="#0f0f1a" opacity="0.7"/>
      <circle id="Elipse_17" data-name="Elipse 17" cx="3.5" cy="3.5" r="3.5" transform="translate(619 1919)" fill="#0f0f1a" opacity="0.7"/>
      <circle id="Elipse_19" data-name="Elipse 19" cx="3.5" cy="3.5" r="3.5" transform="translate(656 1919)" fill="#d85065" opacity="0.9"/>
      <circle id="Elipse_20" data-name="Elipse 20" cx="3.5" cy="3.5" r="3.5" transform="translate(693 1919)" fill="#0f0f1a" opacity="0.7"/>
      <rect id="Rectángulo_20" data-name="Rectángulo 20" width="8" height="54" rx="2" transform="translate(360 1862)" fill="#0f0f1a" opacity="0.7"/>
      <rect id="Rectángulo_21" data-name="Rectángulo 21" width="8" height="69" rx="2" transform="translate(397 1847)" fill="#0f0f1a" opacity="0.7"/>
      <rect id="Rectángulo_22" data-name="Rectángulo 22" width="8" height="44" rx="2" transform="translate(434 1872)" fill="#0f0f1a" opacity="0.7"/>
      <rect id="Rectángulo_23" data-name="Rectángulo 23" width="8" height="54" rx="2" transform="translate(471 1862)" fill="#0f0f1a" opacity="0.7"/>
      <rect id="Rectángulo_24" data-name="Rectángulo 24" width="8" height="61" rx="2" transform="translate(508 1855)" fill="#0f0f1a" opacity="0.7"/>
      <rect id="Rectángulo_25" data-name="Rectángulo 25" width="8" height="51" rx="2" transform="translate(545 1865)" fill="#0f0f1a" opacity="0.7"/>
      <rect id="Rectángulo_26" data-name="Rectángulo 26" width="8" height="61" rx="2" transform="translate(582 1855)" fill="#0f0f1a" opacity="0.7"/>
      <rect id="Rectángulo_27" data-name="Rectángulo 27" width="8" height="69" rx="2" transform="translate(619 1847)" fill="#0f0f1a" opacity="0.7"/>
      <rect id="Rectángulo_29" data-name="Rectángulo 29" width="8" height="90" rx="2" transform="translate(656 1826)" fill="#d85065" opacity="0.9"/>
      <rect id="Rectángulo_30" data-name="Rectángulo 30" width="8" height="72" rx="2" transform="translate(693 1844)" fill="#0f0f1a" opacity="0.7"/>
      <text id="_32" data-name="32" transform="translate(360 1935)" fill="#0f0f1a" font-size="6" font-family="Poppins-Medium, Poppins" font-weight="500" opacity="0.7"><tspan x="0" y="0">32</tspan></text>
      <text id="_32-2" data-name="32" transform="translate(397 1935)" fill="#0f0f1a" font-size="6" font-family="Poppins-Medium, Poppins" font-weight="500" opacity="0.7"><tspan x="0" y="0">32</tspan></text>
      <text id="_32-3" data-name="32" transform="translate(434 1935)" fill="#0f0f1a" font-size="6" font-family="Poppins-Medium, Poppins" font-weight="500" opacity="0.7"><tspan x="0" y="0">32</tspan></text>
      <text id="_32-4" data-name="32" transform="translate(471 1935)" fill="#0f0f1a" font-size="6" font-family="Poppins-Medium, Poppins" font-weight="500" opacity="0.7"><tspan x="0" y="0">32</tspan></text>
      <text id="_32-5" data-name="32" transform="translate(508 1935)" fill="#0f0f1a" font-size="6" font-family="Poppins-Medium, Poppins" font-weight="500" opacity="0.7"><tspan x="0" y="0">32</tspan></text>
      <text id="_32-6" data-name="32" transform="translate(545 1935)" fill="#0f0f1a" font-size="6" font-family="Poppins-Medium, Poppins" font-weight="500" opacity="0.7"><tspan x="0" y="0">32</tspan></text>
      <text id="_32-7" data-name="32" transform="translate(582 1935)" fill="#0f0f1a" font-size="6" font-family="Poppins-Medium, Poppins" font-weight="500" opacity="0.7"><tspan x="0" y="0">32</tspan></text>
      <text id="_32-8" data-name="32" transform="translate(619 1935)" fill="#0f0f1a" font-size="6" font-family="Poppins-Medium, Poppins" font-weight="500" opacity="0.7"><tspan x="0" y="0">32</tspan></text>
      <text id="_32-9" data-name="32" transform="translate(656 1935)" fill="#0f0f1a" font-size="6" font-family="Poppins-Medium, Poppins" font-weight="500" opacity="0.9"><tspan x="0" y="0">32</tspan></text>
      <text id="_32-10" data-name="32" transform="translate(693 1935)" fill="#0f0f1a" font-size="6" font-family="Poppins-Medium, Poppins" font-weight="500" opacity="0.7"><tspan x="0" y="0">32</tspan></text>
      <g id="Elipse_21" data-name="Elipse 21" transform="translate(773 1805)" fill="#fff" stroke="#d85065" stroke-width="16">
        <circle cx="55.5" cy="55.5" r="55.5" stroke="none"/>
        <circle cx="55.5" cy="55.5" r="47.5" fill="none"/>
      </g>
      <rect id="Rectángulo_32" data-name="Rectángulo 32" width="80" height="63" rx="8" transform="translate(831 1787)" fill="#262630"/>
      <rect id="Rectángulo_33" data-name="Rectángulo 33" width="61" height="10" rx="5" transform="translate(837 1792)" fill="#707070" opacity="0.1"/>
      <rect id="Rectángulo_34" data-name="Rectángulo 34" width="46" height="6" rx="3" transform="translate(837 1810)" fill="#707070" opacity="0.1"/>
      <rect id="Rectángulo_35" data-name="Rectángulo 35" width="52" height="6" rx="3" transform="translate(837 1819)" fill="#707070" opacity="0.1"/>
      <g id="Elipse_22" data-name="Elipse 22" transform="translate(352 1600)" fill="#fff" stroke="#9883d0" stroke-width="2">
        <circle cx="54" cy="54" r="54" stroke="none"/>
        <circle cx="54" cy="54" r="53" fill="none"/>
      </g>
      <g id="Elipse_23" data-name="Elipse 23" transform="translate(497 1600)" fill="#fff" stroke="#d85065" stroke-width="2">
        <circle cx="54" cy="54" r="54" stroke="none"/>
        <circle cx="54" cy="54" r="53" fill="none"/>
      </g>
      <g id="Elipse_24" data-name="Elipse 24" transform="translate(642 1600)" fill="#fff" stroke="#df9a6b" stroke-width="2">
        <circle cx="54" cy="54" r="54" stroke="none"/>
        <circle cx="54" cy="54" r="53" fill="none"/>
      </g>
      <g id="Elipse_25" data-name="Elipse 25" transform="translate(787 1600)" fill="#fff" stroke="#d16d46" stroke-width="2">
        <circle cx="54" cy="54" r="54" stroke="none"/>
        <circle cx="54" cy="54" r="53" fill="none"/>
      </g>
      <text id="_78_" data-name="78%" transform="translate(382 1659)" fill="#56565e" font-size="25" font-family="Poppins-Regular, Poppins"><tspan x="0" y="0">78%</tspan></text>
      <text id="_78_2" data-name="78%" transform="translate(528 1659)" fill="#56565e" font-size="25" font-family="Poppins-Regular, Poppins"><tspan x="0" y="0">78%</tspan></text>
      <text id="_78_3" data-name="78%" transform="translate(672 1659)" fill="#56565e" font-size="25" font-family="Poppins-Regular, Poppins"><tspan x="0" y="0">78%</tspan></text>
      <text id="_78_4" data-name="78%" transform="translate(817 1659)" fill="#56565e" font-size="25" font-family="Poppins-Regular, Poppins"><tspan x="0" y="0">78%</tspan></text>
      <text id="MX" transform="translate(395 1679)" fill="#0f0f1a" font-size="15" font-family="Poppins-Light, Poppins" font-weight="300" opacity="0.5"><tspan x="0" y="0">MX</tspan></text>
      <text id="MX-2" data-name="MX" transform="translate(541 1679)" fill="#0f0f1a" font-size="15" font-family="Poppins-Light, Poppins" font-weight="300" opacity="0.5"><tspan x="0" y="0">MX</tspan></text>
      <text id="MX-3" data-name="MX" transform="translate(685 1679)" fill="#0f0f1a" font-size="15" font-family="Poppins-Light, Poppins" font-weight="300" opacity="0.5"><tspan x="0" y="0">MX</tspan></text>
      <text id="MX-4" data-name="MX" transform="translate(830 1679)" fill="#0f0f1a" font-size="15" font-family="Poppins-Light, Poppins" font-weight="300" opacity="0.5"><tspan x="0" y="0">MX</tspan></text>
    </g>
  </g>
</svg>
