<svg xmlns="http://www.w3.org/2000/svg" width="71" height="72" viewBox="0 0 71 72">
  <path id="Sustracción_6" data-name="Sustracción 6" d="M41.5-15a34.855,34.855,0,0,1-13.818-2.829A35.358,35.358,0,0,1,16.4-25.544,35.912,35.912,0,0,1,8.79-36.987,36.211,36.211,0,0,1,6-51,36.21,36.21,0,0,1,8.79-65.013,35.913,35.913,0,0,1,16.4-76.456a35.359,35.359,0,0,1,11.284-7.715A34.853,34.853,0,0,1,41.5-87a34.855,34.855,0,0,1,13.818,2.829A35.359,35.359,0,0,1,66.6-76.456a35.912,35.912,0,0,1,7.608,11.443A36.209,36.209,0,0,1,77-51a36.211,36.211,0,0,1-2.79,14.013A35.912,35.912,0,0,1,66.6-25.544a35.359,35.359,0,0,1-11.284,7.715A34.857,34.857,0,0,1,41.5-15ZM31.553-57.839a2.454,2.454,0,0,0-2.474,2.487l-.013,13.677a2.49,2.49,0,0,0,2.487,2.487H51.447a2.49,2.49,0,0,0,2.487-2.487V-55.353a2.49,2.49,0,0,0-2.487-2.487H46.473v-2.487a2.49,2.49,0,0,0-2.487-2.487H39.013a2.49,2.49,0,0,0-2.487,2.487v2.487Zm12.434,0H39.013v-2.487h4.973v2.486Z" transform="translate(-6 87)" fill="#fff"/>
</svg>
